# xmcd
#
# Track frame offsets: 
#        150
#        20422
#        38788
#        55262
#        72056
#        93685
#        144956
#        184622
#        272535
#
# Disc length: 4040 seconds
#
# Revision: 1
# Processed by: cddbd v1.5.2PL0 Copyright (c) Steve Scherf et al.
# Submitted via: ExactAudioCopyFreeDBPlugin 1.0
#
DISCID=740fc609
DTITLE=The Allman Brothers Band - Live from A&R Studios, New York, Aug
DTITLE=ust 26, 1971
DYEAR=1971
DGENRE=Rock
TTITLE0=Statesboro Blues
TTITLE1=Trouble No More
TTITLE2=Don't Keep Me Wonderin'
TTITLE3=Done Somebody Wrong
TTITLE4=One Way Out
TTITLE5=In Memory of Elizabeth Reed
TTITLE6=Stormy Monday
TTITLE7=You Don't Love Me - Soul Serenade
TTITLE8=Hot 'Lanta
EXTD=
EXTT0=
EXTT1=
EXTT2=
EXTT3=
EXTT4=
EXTT5=
EXTT6=
EXTT7=
EXTT8=
PLAYORDER=
